<?xml version="1.0" encoding="utf-8"?>
<!DOCTYPE svg PUBLIC "-//W3C//DTD SVG 1.1//EN" "http://www.w3.org/Graphics/SVG/1.1/DTD/svg11.dtd">
<svg xmlns="http://www.w3.org/2000/svg" xmlns:xlink="http://www.w3.org/1999/xlink" version="1.1" baseProfile="full" width="48" height="48" viewBox="0 0 48.00 48.00" enable-background="new 0 0 48.00 48.00" xml:space="preserve">
	<path fill="#FFFFFF" fill-opacity="1" stroke-width="0.2" stroke-linejoin="round" stroke="#FFFFFF" stroke-opacity="1" d="M 38.0969,33.1621L 25.6026,33.1621L 37.3635,16.7591C 37.8493,17.7099 38.0969,18.6336 38.0969,19.5106L 38.0969,33.1621 Z M 12.8237,33.1621L 24.5633,16.7484C 24.8112,16.4449 25.4303,15.6846 25.6628,15.374C 26.2177,14.6323 26.9536,14.051 27.9118,13.5965C 28.993,13.0837 30.0204,12.8343 31.0513,12.8343C 31.1167,12.8343 31.1822,12.8353 31.2528,12.8375C 33.0169,12.8726 34.5523,13.5117 35.8161,14.7372C 36.2384,15.1465 36.6192,15.583 36.8911,15.9623L 24.5589,33.1622L 12.8237,33.1621 Z M 10.1335,33.1621L 10.1335,19.5106C 10.1335,18.3943 10.4728,17.2861 11.1145,16.3055L 11.1236,16.291C 11.7289,15.2768 12.5923,14.4418 13.6836,13.8128C 14.8639,13.1566 15.9895,12.8377 17.1248,12.8377C 19.1118,12.8377 20.9251,13.701 22.5139,15.4035L 23.5943,16.6454L 11.7811,33.1621L 10.1335,33.1621 Z M 37.8451,15.8696C 37.5465,15.3626 37.0256,14.7325 36.416,14.1413C 34.9914,12.76 33.2602,12.0395 31.2751,12.0002C 30.0295,11.9614 28.8179,12.237 27.5411,12.8422C 26.4542,13.3576 25.6153,14.0235 24.9754,14.878C 24.8059,15.1044 24.4041,15.602 24.1166,15.9561L 23.158,14.854L 23.1484,14.8432C 21.39,12.9566 19.3634,12 17.125,12C 15.8385,12 14.5753,12.3545 13.2576,13.0872C 12.0359,13.7915 11.0717,14.7245 10.392,15.8601C 9.6647,16.9743 9.28034,18.2364 9.28034,19.5109L 9.28034,34L 38.9501,34L 38.9501,19.5108C 38.9501,18.3406 38.5784,17.1155 37.8451,15.8696 Z "/>
	<path fill="#FFFFFF" fill-opacity="1" stroke-linejoin="round" d="M 23.9999,43.7594C 13.1044,43.7594 4.24038,34.8952 4.24038,23.9997C 4.24038,13.1042 13.1044,4.24017 23.9999,4.24017C 34.8956,4.24017 43.7596,13.1044 43.7596,23.9999C 43.7596,34.8956 34.8953,43.7594 23.9999,43.7594 Z M 23.9999,1.99994C 11.8691,1.99994 2,11.8691 2,24C 2,36.1309 11.8691,46.0001 23.9999,46.0001C 36.1309,46.0001 46,36.1311 46,24C 46,11.8691 36.1309,1.99994 23.9999,1.99994 Z "/>
</svg>
